<mxfile host="app.diagrams.net" agent="Mozilla/5.0 (Macintosh; Intel Mac OS X 10_15_7) AppleWebKit/605.1.15 (KHTML, like Gecko) Version/18.0.1 Safari/605.1.15" version="24.8.6">
  <diagram name="第 1 页" id="XeFT9RAL0jmuDU49KzOn">
    <mxGraphModel dx="965" dy="533" grid="1" gridSize="10" guides="1" tooltips="1" connect="1" arrows="1" fold="1" page="1" pageScale="1" pageWidth="827" pageHeight="1169" math="0" shadow="0">
      <root>
        <mxCell id="0" />
        <mxCell id="1" parent="0" />
        <mxCell id="E84nc0efOehVYlkrJF3X-14" value="" style="edgeStyle=orthogonalEdgeStyle;rounded=0;orthogonalLoop=1;jettySize=auto;html=1;labelBackgroundColor=none;strokeColor=#23445D;fontColor=default;" parent="1" source="o90tf0dQoTygKEmvJ2A5-5" target="E84nc0efOehVYlkrJF3X-9" edge="1">
          <mxGeometry relative="1" as="geometry" />
        </mxCell>
        <mxCell id="erSVuCGJiAo2yRWPmqJu-13" style="edgeStyle=orthogonalEdgeStyle;rounded=0;orthogonalLoop=1;jettySize=auto;html=1;entryX=0.5;entryY=1;entryDx=0;entryDy=0;strokeColor=#23445D;" parent="1" source="o90tf0dQoTygKEmvJ2A5-5" target="E84nc0efOehVYlkrJF3X-20" edge="1">
          <mxGeometry relative="1" as="geometry" />
        </mxCell>
        <mxCell id="o90tf0dQoTygKEmvJ2A5-5" value="是否掃描到圖像？" style="rhombus;whiteSpace=wrap;html=1;align=center;verticalAlign=middle;labelBackgroundColor=none;fillColor=#182E3E;strokeColor=#FFFFFF;fontColor=#FFFFFF;" parent="1" vertex="1">
          <mxGeometry x="430.52" y="260" width="140" height="105" as="geometry" />
        </mxCell>
        <mxCell id="E84nc0efOehVYlkrJF3X-43" value="" style="edgeStyle=orthogonalEdgeStyle;rounded=0;orthogonalLoop=1;jettySize=auto;html=1;strokeColor=#23445D;" parent="1" source="o90tf0dQoTygKEmvJ2A5-18" target="E84nc0efOehVYlkrJF3X-42" edge="1">
          <mxGeometry relative="1" as="geometry" />
        </mxCell>
        <mxCell id="o90tf0dQoTygKEmvJ2A5-18" value="玩家移動拼圖" style="rounded=0;whiteSpace=wrap;html=1;align=center;verticalAlign=middle;labelBackgroundColor=none;fillColor=#182E3E;strokeColor=#FFFFFF;fontColor=#FFFFFF;" parent="1" vertex="1">
          <mxGeometry x="440.52" y="465" width="120" height="40" as="geometry" />
        </mxCell>
        <mxCell id="E84nc0efOehVYlkrJF3X-38" value="" style="edgeStyle=orthogonalEdgeStyle;rounded=0;orthogonalLoop=1;jettySize=auto;html=1;strokeColor=#23445D;" parent="1" source="E84nc0efOehVYlkrJF3X-9" target="o90tf0dQoTygKEmvJ2A5-18" edge="1">
          <mxGeometry relative="1" as="geometry" />
        </mxCell>
        <mxCell id="E84nc0efOehVYlkrJF3X-9" value="出現拼圖" style="rounded=0;whiteSpace=wrap;html=1;align=center;verticalAlign=middle;labelBackgroundColor=none;fillColor=#182E3E;strokeColor=#FFFFFF;fontColor=#FFFFFF;" parent="1" vertex="1">
          <mxGeometry x="440.52" y="390" width="120" height="40" as="geometry" />
        </mxCell>
        <mxCell id="E84nc0efOehVYlkrJF3X-21" value="" style="edgeStyle=orthogonalEdgeStyle;rounded=0;orthogonalLoop=1;jettySize=auto;html=1;labelBackgroundColor=none;strokeColor=#23445D;fontColor=default;" parent="1" source="E84nc0efOehVYlkrJF3X-18" target="E84nc0efOehVYlkrJF3X-20" edge="1">
          <mxGeometry relative="1" as="geometry" />
        </mxCell>
        <mxCell id="E84nc0efOehVYlkrJF3X-18" value="開始" style="ellipse;whiteSpace=wrap;html=1;labelBackgroundColor=none;fillColor=#182E3E;strokeColor=#FFFFFF;fontColor=#FFFFFF;" parent="1" vertex="1">
          <mxGeometry x="60" y="150" width="120" height="80" as="geometry" />
        </mxCell>
        <mxCell id="E84nc0efOehVYlkrJF3X-27" value="" style="edgeStyle=orthogonalEdgeStyle;rounded=0;orthogonalLoop=1;jettySize=auto;html=1;labelBackgroundColor=none;strokeColor=#23445D;fontColor=default;" parent="1" source="E84nc0efOehVYlkrJF3X-20" target="E84nc0efOehVYlkrJF3X-26" edge="1">
          <mxGeometry relative="1" as="geometry" />
        </mxCell>
        <mxCell id="E84nc0efOehVYlkrJF3X-20" value="啟動相機" style="whiteSpace=wrap;html=1;labelBackgroundColor=none;fillColor=#182E3E;strokeColor=#FFFFFF;fontColor=#FFFFFF;" parent="1" vertex="1">
          <mxGeometry x="240" y="160" width="120" height="60" as="geometry" />
        </mxCell>
        <mxCell id="E84nc0efOehVYlkrJF3X-28" value="" style="edgeStyle=orthogonalEdgeStyle;rounded=0;orthogonalLoop=1;jettySize=auto;html=1;labelBackgroundColor=none;strokeColor=#23445D;fontColor=default;" parent="1" source="E84nc0efOehVYlkrJF3X-26" target="o90tf0dQoTygKEmvJ2A5-5" edge="1">
          <mxGeometry relative="1" as="geometry" />
        </mxCell>
        <mxCell id="E84nc0efOehVYlkrJF3X-26" value="&lt;div style=&quot;text-align: start;&quot;&gt;&lt;span style=&quot;caret-color: rgb(0, 0, 0);&quot;&gt;掃描圖像&lt;/span&gt;&lt;/div&gt;" style="whiteSpace=wrap;html=1;labelBackgroundColor=none;fillColor=#182E3E;strokeColor=#FFFFFF;fontColor=#FFFFFF;" parent="1" vertex="1">
          <mxGeometry x="390" y="160" width="120" height="60" as="geometry" />
        </mxCell>
        <mxCell id="E84nc0efOehVYlkrJF3X-31" value="第三關流程圖" style="text;html=1;align=center;verticalAlign=middle;whiteSpace=wrap;rounded=0;labelBackgroundColor=none;fontColor=#1A1A1A;fillColor=#FFFFFF;strokeColor=#1A1A1A;" parent="1" vertex="1">
          <mxGeometry x="140" y="30" width="100" height="30" as="geometry" />
        </mxCell>
        <mxCell id="erSVuCGJiAo2yRWPmqJu-15" value="" style="edgeStyle=orthogonalEdgeStyle;rounded=0;orthogonalLoop=1;jettySize=auto;html=1;strokeColor=#23445D;" parent="1" source="E84nc0efOehVYlkrJF3X-39" target="erSVuCGJiAo2yRWPmqJu-7" edge="1">
          <mxGeometry relative="1" as="geometry" />
        </mxCell>
        <mxCell id="E84nc0efOehVYlkrJF3X-39" value="&lt;div style=&quot;text-align: start;&quot;&gt;&lt;span style=&quot;caret-color: rgb(0, 0, 0);&quot;&gt;加分&lt;/span&gt;&lt;/div&gt;" style="rounded=0;whiteSpace=wrap;html=1;align=center;verticalAlign=middle;labelBackgroundColor=none;fillColor=#182E3E;strokeColor=#FFFFFF;fontColor=#FFFFFF;" parent="1" vertex="1">
          <mxGeometry x="440.52" y="660" width="120" height="40" as="geometry" />
        </mxCell>
        <mxCell id="E84nc0efOehVYlkrJF3X-46" value="" style="edgeStyle=orthogonalEdgeStyle;rounded=0;orthogonalLoop=1;jettySize=auto;html=1;strokeColor=#23445D;" parent="1" source="E84nc0efOehVYlkrJF3X-42" target="E84nc0efOehVYlkrJF3X-39" edge="1">
          <mxGeometry relative="1" as="geometry" />
        </mxCell>
        <mxCell id="erSVuCGJiAo2yRWPmqJu-6" value="" style="edgeStyle=orthogonalEdgeStyle;rounded=0;orthogonalLoop=1;jettySize=auto;html=1;strokeColor=#23445D;" parent="1" source="E84nc0efOehVYlkrJF3X-42" target="erSVuCGJiAo2yRWPmqJu-5" edge="1">
          <mxGeometry relative="1" as="geometry" />
        </mxCell>
        <mxCell id="E84nc0efOehVYlkrJF3X-42" value="是否放在正確位置？" style="rhombus;whiteSpace=wrap;html=1;align=center;verticalAlign=middle;labelBackgroundColor=none;fillColor=#182E3E;strokeColor=#FFFFFF;fontColor=#FFFFFF;" parent="1" vertex="1">
          <mxGeometry x="430.52" y="532" width="140" height="105" as="geometry" />
        </mxCell>
        <mxCell id="E84nc0efOehVYlkrJF3X-52" value="否" style="text;html=1;align=center;verticalAlign=middle;whiteSpace=wrap;rounded=0;fontColor=#1A1A1A;" parent="1" vertex="1">
          <mxGeometry x="380.52" y="280" width="59.48" height="30" as="geometry" />
        </mxCell>
        <mxCell id="E84nc0efOehVYlkrJF3X-79" value="" style="edgeStyle=orthogonalEdgeStyle;rounded=0;orthogonalLoop=1;jettySize=auto;html=1;strokeColor=#23445D;" parent="1" source="E84nc0efOehVYlkrJF3X-73" target="E84nc0efOehVYlkrJF3X-78" edge="1">
          <mxGeometry relative="1" as="geometry" />
        </mxCell>
        <mxCell id="E84nc0efOehVYlkrJF3X-73" value="點擊按鈕進入下一題" style="rounded=0;whiteSpace=wrap;html=1;align=center;verticalAlign=middle;labelBackgroundColor=none;fillColor=#182E3E;strokeColor=#FFFFFF;fontColor=#FFFFFF;" parent="1" vertex="1">
          <mxGeometry x="441.03999999999996" y="790" width="120" height="40" as="geometry" />
        </mxCell>
        <mxCell id="E84nc0efOehVYlkrJF3X-86" style="edgeStyle=orthogonalEdgeStyle;rounded=0;orthogonalLoop=1;jettySize=auto;html=1;entryX=0.5;entryY=1;entryDx=0;entryDy=0;strokeColor=#23445D;" parent="1" source="E84nc0efOehVYlkrJF3X-78" target="E84nc0efOehVYlkrJF3X-20" edge="1">
          <mxGeometry relative="1" as="geometry" />
        </mxCell>
        <mxCell id="erSVuCGJiAo2yRWPmqJu-11" value="" style="edgeStyle=orthogonalEdgeStyle;rounded=0;orthogonalLoop=1;jettySize=auto;html=1;strokeColor=#23445D;" parent="1" source="E84nc0efOehVYlkrJF3X-78" target="erSVuCGJiAo2yRWPmqJu-10" edge="1">
          <mxGeometry relative="1" as="geometry" />
        </mxCell>
        <mxCell id="E84nc0efOehVYlkrJF3X-78" value="&lt;span style=&quot;text-align: start; caret-color: rgb(0, 0, 0);&quot;&gt;&lt;font style=&quot;font-size: 12px;&quot;&gt;是否遊戲結束？&lt;/font&gt;&lt;/span&gt;" style="rhombus;whiteSpace=wrap;html=1;align=center;verticalAlign=middle;labelBackgroundColor=none;fillColor=#182E3E;strokeColor=#FFFFFF;fontColor=#FFFFFF;" parent="1" vertex="1">
          <mxGeometry x="431.03999999999996" y="850" width="140" height="105" as="geometry" />
        </mxCell>
        <mxCell id="E84nc0efOehVYlkrJF3X-87" value="否" style="text;html=1;align=center;verticalAlign=middle;whiteSpace=wrap;rounded=0;fontColor=#1A1A1A;" parent="1" vertex="1">
          <mxGeometry x="560" y="550" width="60" height="30" as="geometry" />
        </mxCell>
        <mxCell id="E84nc0efOehVYlkrJF3X-88" value="否" style="text;html=1;align=center;verticalAlign=middle;whiteSpace=wrap;rounded=0;fontColor=#1A1A1A;" parent="1" vertex="1">
          <mxGeometry x="290" y="590" width="60" height="30" as="geometry" />
        </mxCell>
        <mxCell id="erSVuCGJiAo2yRWPmqJu-14" style="edgeStyle=orthogonalEdgeStyle;rounded=0;orthogonalLoop=1;jettySize=auto;html=1;entryX=1;entryY=0.5;entryDx=0;entryDy=0;strokeColor=#23445D;" parent="1" source="erSVuCGJiAo2yRWPmqJu-5" target="o90tf0dQoTygKEmvJ2A5-18" edge="1">
          <mxGeometry relative="1" as="geometry">
            <Array as="points">
              <mxPoint x="680" y="485" />
            </Array>
          </mxGeometry>
        </mxCell>
        <mxCell id="erSVuCGJiAo2yRWPmqJu-5" value="返回原位" style="rounded=0;whiteSpace=wrap;html=1;align=center;verticalAlign=middle;labelBackgroundColor=none;fillColor=#182E3E;strokeColor=#FFFFFF;fontColor=#FFFFFF;" parent="1" vertex="1">
          <mxGeometry x="620" y="565" width="120" height="40" as="geometry" />
        </mxCell>
        <mxCell id="erSVuCGJiAo2yRWPmqJu-16" value="" style="edgeStyle=orthogonalEdgeStyle;rounded=0;orthogonalLoop=1;jettySize=auto;html=1;strokeColor=#23445D;" parent="1" source="erSVuCGJiAo2yRWPmqJu-7" target="E84nc0efOehVYlkrJF3X-73" edge="1">
          <mxGeometry relative="1" as="geometry" />
        </mxCell>
        <mxCell id="erSVuCGJiAo2yRWPmqJu-7" value="&lt;div style=&quot;text-align: start;&quot;&gt;&lt;span style=&quot;caret-color: rgb(0, 0, 0);&quot;&gt;顯示完整圖像與資訊&lt;/span&gt;&lt;/div&gt;" style="rounded=0;whiteSpace=wrap;html=1;align=center;verticalAlign=middle;labelBackgroundColor=none;fillColor=#182E3E;strokeColor=#FFFFFF;fontColor=#FFFFFF;" parent="1" vertex="1">
          <mxGeometry x="441.04" y="720" width="120" height="40" as="geometry" />
        </mxCell>
        <mxCell id="erSVuCGJiAo2yRWPmqJu-10" value="遊戲結束" style="ellipse;whiteSpace=wrap;html=1;strokeColor=#FFFFFF;fontColor=#FFFFFF;fillColor=#182E3E;" parent="1" vertex="1">
          <mxGeometry x="441.03999999999996" y="980" width="120" height="80" as="geometry" />
        </mxCell>
      </root>
    </mxGraphModel>
  </diagram>
</mxfile>
